<svg width="1401" height="1097" viewBox="0 0 1401 1097" fill="none" xmlns="http://www.w3.org/2000/svg">
<path d="M29.9064 318.641L56.2466 312.334" stroke="white" stroke-opacity="0.05" stroke-width="4" stroke-linecap="round"/>
<path d="M121.953 399.437L148.413 405.208M138.109 389.084L132.384 415.759" stroke="white" stroke-opacity="0.05" stroke-width="4" stroke-linecap="round"/>
<path d="M-17.0551 410.035L9.40562 415.806" stroke="white" stroke-opacity="0.05" stroke-width="4" stroke-linecap="round"/>
<path d="M-0.898803 399.681L-6.62563 426.365" stroke="white" stroke-opacity="0.05" stroke-width="4" stroke-linecap="round" stroke-linejoin="round" stroke-dasharray="1 127"/>
<path d="M-6.3598 54.9263L20.2567 59.9164" stroke="white" stroke-opacity="0.05" stroke-width="4" stroke-linecap="round"/>
<path d="M45.3303 166.386L67.2037 182.468M64.2616 163.519L48.3087 185.569" stroke="white" stroke-opacity="0.05" stroke-width="4" stroke-linecap="round"/>
<path d="M1277.63 694.112L1302.05 682.333" stroke="white" stroke-opacity="0.05" stroke-width="4" stroke-linecap="round"/>
<path d="M1384.54 753.46H1411.62M1398.16 739.898L1398.16 767.189" stroke="white" stroke-opacity="0.05" stroke-width="4" stroke-linecap="round"/>
<path d="M1250.9 793.449H1277.98" stroke="white" stroke-opacity="0.05" stroke-width="4" stroke-linecap="round"/>
<path d="M1264.52 779.887L1264.52 807.178" stroke="white" stroke-opacity="0.05" stroke-width="4" stroke-linecap="round" stroke-linejoin="round" stroke-dasharray="1 127"/>
<path d="M1374.79 898.175L1401.86 898.28" stroke="white" stroke-opacity="0.05" stroke-width="4" stroke-linecap="round"/>
<path d="M1307.85 975.897L1332.23 987.77" stroke="white" stroke-opacity="0.05" stroke-width="4" stroke-linecap="round"/>
<path d="M1325.97 969.658L1314.19 994.232" stroke="white" stroke-opacity="0.05" stroke-width="4" stroke-linecap="round" stroke-linejoin="round" stroke-dasharray="1 127"/>
<path d="M879.126 149.091L903.547 137.312" stroke="white" stroke-opacity="0.05" stroke-width="4" stroke-linecap="round"/>
<path d="M986.041 208.438H1013.11M999.661 194.876L999.661 222.167" stroke="white" stroke-opacity="0.05" stroke-width="4" stroke-linecap="round"/>
<path d="M852.401 248.427H879.474" stroke="white" stroke-opacity="0.05" stroke-width="4" stroke-linecap="round"/>
<path d="M866.018 234.865L866.018 262.157" stroke="white" stroke-opacity="0.05" stroke-width="4" stroke-linecap="round" stroke-linejoin="round" stroke-dasharray="1 127"/>
<path d="M1364.34 390.438L1390.8 396.209" stroke="white" stroke-opacity="0.05" stroke-width="4" stroke-linecap="round"/>
<path d="M1380.5 380.084L1374.77 406.768" stroke="white" stroke-opacity="0.05" stroke-width="4" stroke-linecap="round" stroke-linejoin="round" stroke-dasharray="1 127"/>
<path d="M1202.3 436.911L1226.72 425.132" stroke="white" stroke-opacity="0.05" stroke-width="4" stroke-linecap="round"/>
<path d="M1309.22 496.258H1336.3M1322.84 482.696L1322.84 509.988" stroke="white" stroke-opacity="0.05" stroke-width="4" stroke-linecap="round"/>
<path d="M1175.57 536.247H1202.65" stroke="white" stroke-opacity="0.05" stroke-width="4" stroke-linecap="round"/>
<path d="M1189.19 522.685L1189.19 549.977" stroke="white" stroke-opacity="0.05" stroke-width="4" stroke-linecap="round" stroke-linejoin="round" stroke-dasharray="1 127"/>
<path d="M1375.03 35.3295L1401.65 40.3196" stroke="white" stroke-opacity="0.05" stroke-width="4" stroke-linecap="round"/>
<path d="M1295.37 99.7103L1317.25 115.792" stroke="white" stroke-opacity="0.05" stroke-width="4" stroke-linecap="round"/>
<path d="M1314.31 96.8431L1298.35 118.893" stroke="white" stroke-opacity="0.05" stroke-width="4" stroke-linecap="round" stroke-linejoin="round" stroke-dasharray="1 127"/>
<path d="M1196.73 10.1823L1222.06 0.553521M1204.73 -7.35168L1214.28 18.1851" stroke="white" stroke-opacity="0.05" stroke-width="4" stroke-linecap="round"/>
<path d="M1085.68 95.1324L1111.01 85.5037" stroke="white" stroke-opacity="0.05" stroke-width="4" stroke-linecap="round"/>
<path d="M1093.68 77.5985L1103.23 103.135" stroke="white" stroke-opacity="0.05" stroke-width="4" stroke-linecap="round" stroke-linejoin="round" stroke-dasharray="1 127"/>
<path d="M1184.82 194.87L1211.85 196.351" stroke="white" stroke-opacity="0.05" stroke-width="4" stroke-linecap="round"/>
<path d="M1250.36 298.662L1274.11 311.76M1268.76 293.353L1255.77 317.296" stroke="white" stroke-opacity="0.05" stroke-width="4" stroke-linecap="round"/>
<path d="M1114.07 269.087L1137.82 282.185" stroke="white" stroke-opacity="0.05" stroke-width="4" stroke-linecap="round"/>
<path d="M1132.48 263.778L1119.49 287.721" stroke="white" stroke-opacity="0.05" stroke-width="4" stroke-linecap="round" stroke-linejoin="round" stroke-dasharray="1 127"/>
<path d="M976.288 353.153L1003.36 353.257" stroke="white" stroke-opacity="0.05" stroke-width="4" stroke-linecap="round"/>
<path d="M1046.94 453.479L1071.32 465.352M1065.06 447.24L1053.28 471.814" stroke="white" stroke-opacity="0.05" stroke-width="4" stroke-linecap="round"/>
<path d="M909.352 430.874L933.729 442.747" stroke="white" stroke-opacity="0.05" stroke-width="4" stroke-linecap="round"/>
<path d="M927.468 424.636L915.69 449.21" stroke="white" stroke-opacity="0.05" stroke-width="4" stroke-linecap="round" stroke-linejoin="round" stroke-dasharray="1 127"/>
<path d="M555.95 694.112L580.372 682.333" stroke="white" stroke-opacity="0.05" stroke-width="4" stroke-linecap="round"/>
<path d="M662.865 753.46H689.938M676.485 739.898L676.485 767.189" stroke="white" stroke-opacity="0.05" stroke-width="4" stroke-linecap="round"/>
<path d="M529.22 793.449H556.293" stroke="white" stroke-opacity="0.05" stroke-width="4" stroke-linecap="round"/>
<path d="M542.842 779.887L542.842 807.178" stroke="white" stroke-opacity="0.05" stroke-width="4" stroke-linecap="round" stroke-linejoin="round" stroke-dasharray="1 127"/>
<path d="M1088.13 844.067L1114.47 837.76" stroke="white" stroke-opacity="0.05" stroke-width="4" stroke-linecap="round"/>
<path d="M1180.17 924.863L1206.63 930.634M1196.33 914.511L1190.6 941.185" stroke="white" stroke-opacity="0.05" stroke-width="4" stroke-linecap="round"/>
<path d="M1041.17 935.461L1067.63 941.232" stroke="white" stroke-opacity="0.05" stroke-width="4" stroke-linecap="round"/>
<path d="M1057.32 925.107L1051.59 951.791" stroke="white" stroke-opacity="0.05" stroke-width="4" stroke-linecap="round" stroke-linejoin="round" stroke-dasharray="1 127"/>
<path d="M879.126 981.935L903.547 970.156" stroke="white" stroke-opacity="0.05" stroke-width="4" stroke-linecap="round"/>
<path d="M986.041 1041.28H1013.11M999.661 1027.72L999.661 1055.01" stroke="white" stroke-opacity="0.05" stroke-width="4" stroke-linecap="round"/>
<path d="M852.401 1081.27H879.474" stroke="white" stroke-opacity="0.05" stroke-width="4" stroke-linecap="round"/>
<path d="M866.018 1067.71L866.018 1095" stroke="white" stroke-opacity="0.05" stroke-width="4" stroke-linecap="round" stroke-linejoin="round" stroke-dasharray="1 127"/>
<path d="M1051.86 580.352L1078.48 585.342" stroke="white" stroke-opacity="0.05" stroke-width="4" stroke-linecap="round"/>
<path d="M1103.55 691.812L1125.43 707.894M1122.48 688.945L1106.53 710.995" stroke="white" stroke-opacity="0.05" stroke-width="4" stroke-linecap="round"/>
<path d="M972.195 644.733L994.068 660.815" stroke="white" stroke-opacity="0.05" stroke-width="4" stroke-linecap="round"/>
<path d="M991.128 641.866L975.175 663.916" stroke="white" stroke-opacity="0.05" stroke-width="4" stroke-linecap="round" stroke-linejoin="round" stroke-dasharray="1 127"/>
<path d="M752.742 537.698L771.471 517.991" stroke="white" stroke-opacity="0.05" stroke-width="4" stroke-linecap="round"/>
<path d="M873.553 555.203L898.885 545.575M881.55 537.669L891.102 563.206" stroke="white" stroke-opacity="0.05" stroke-width="4" stroke-linecap="round"/>
<path d="M762.499 640.153L787.831 630.524" stroke="white" stroke-opacity="0.05" stroke-width="4" stroke-linecap="round"/>
<path d="M770.497 622.619L780.049 648.156" stroke="white" stroke-opacity="0.05" stroke-width="4" stroke-linecap="round" stroke-linejoin="round" stroke-dasharray="1 127"/>
<path d="M861.639 739.893L888.672 741.374" stroke="white" stroke-opacity="0.05" stroke-width="4" stroke-linecap="round"/>
<path d="M927.184 843.685L950.935 856.783M945.589 838.376L932.596 862.319" stroke="white" stroke-opacity="0.05" stroke-width="4" stroke-linecap="round"/>
<path d="M790.899 814.11L814.65 827.208" stroke="white" stroke-opacity="0.05" stroke-width="4" stroke-linecap="round"/>
<path d="M809.305 808.801L796.312 832.744" stroke="white" stroke-opacity="0.05" stroke-width="4" stroke-linecap="round" stroke-linejoin="round" stroke-dasharray="1 127"/>
<path d="M653.108 898.175L680.181 898.279" stroke="white" stroke-opacity="0.05" stroke-width="4" stroke-linecap="round"/>
<path d="M723.764 998.501L748.141 1010.37M741.88 992.262L730.102 1016.84" stroke="white" stroke-opacity="0.05" stroke-width="4" stroke-linecap="round"/>
<path d="M586.174 975.896L610.55 987.769" stroke="white" stroke-opacity="0.05" stroke-width="4" stroke-linecap="round"/>
<path d="M604.29 969.658L592.512 994.231" stroke="white" stroke-opacity="0.05" stroke-width="4" stroke-linecap="round" stroke-linejoin="round" stroke-dasharray="1 127"/>
<path d="M387.103 844.067L413.443 837.76" stroke="white" stroke-opacity="0.05" stroke-width="4" stroke-linecap="round"/>
<path d="M479.149 924.863L505.61 930.634M495.305 914.51L489.581 941.185" stroke="white" stroke-opacity="0.05" stroke-width="4" stroke-linecap="round"/>
<path d="M340.14 935.463L366.601 941.234" stroke="white" stroke-opacity="0.05" stroke-width="4" stroke-linecap="round"/>
<path d="M356.297 925.107L350.57 951.791" stroke="white" stroke-opacity="0.05" stroke-width="4" stroke-linecap="round" stroke-linejoin="round" stroke-dasharray="1 127"/>
<path d="M178.102 981.935L202.524 970.156" stroke="white" stroke-opacity="0.05" stroke-width="4" stroke-linecap="round"/>
<path d="M285.014 1041.28H312.087M298.633 1027.72L298.633 1055.01" stroke="white" stroke-opacity="0.05" stroke-width="4" stroke-linecap="round"/>
<path d="M151.373 1081.27H178.446" stroke="white" stroke-opacity="0.05" stroke-width="4" stroke-linecap="round"/>
<path d="M164.99 1067.71L164.99 1095" stroke="white" stroke-opacity="0.05" stroke-width="4" stroke-linecap="round" stroke-linejoin="round" stroke-dasharray="1 127"/>
<path d="M350.835 580.351L377.451 585.341" stroke="white" stroke-opacity="0.05" stroke-width="4" stroke-linecap="round"/>
<path d="M402.524 691.81L424.398 707.892M421.456 688.943L405.503 710.994" stroke="white" stroke-opacity="0.05" stroke-width="4" stroke-linecap="round"/>
<path d="M271.171 644.732L293.045 660.814" stroke="white" stroke-opacity="0.05" stroke-width="4" stroke-linecap="round"/>
<path d="M290.104 641.865L274.151 663.915" stroke="white" stroke-opacity="0.05" stroke-width="4" stroke-linecap="round" stroke-linejoin="round" stroke-dasharray="1 127"/>
<path d="M51.7206 537.698L70.4493 517.99" stroke="white" stroke-opacity="0.05" stroke-width="4" stroke-linecap="round"/>
<path d="M172.531 555.203L197.863 545.574M180.529 537.669L190.08 563.206" stroke="white" stroke-opacity="0.05" stroke-width="4" stroke-linecap="round"/>
<path d="M61.4772 640.153L86.8092 630.524" stroke="white" stroke-opacity="0.05" stroke-width="4" stroke-linecap="round"/>
<path d="M69.473 622.619L79.0246 648.156" stroke="white" stroke-opacity="0.05" stroke-width="4" stroke-linecap="round" stroke-linejoin="round" stroke-dasharray="1 127"/>
<path d="M160.61 739.893L187.643 741.374" stroke="white" stroke-opacity="0.05" stroke-width="4" stroke-linecap="round"/>
<path d="M226.157 843.685L249.908 856.783M244.562 838.376L231.569 862.319" stroke="white" stroke-opacity="0.05" stroke-width="4" stroke-linecap="round"/>
<path d="M89.8726 814.11L113.624 827.208" stroke="white" stroke-opacity="0.05" stroke-width="4" stroke-linecap="round"/>
<path d="M108.276 808.801L95.2827 832.745" stroke="white" stroke-opacity="0.05" stroke-width="4" stroke-linecap="round" stroke-linejoin="round" stroke-dasharray="1 127"/>
<path d="M22.7416 998.5L47.1184 1010.37M40.8576 992.262L29.0797 1016.84" stroke="white" stroke-opacity="0.05" stroke-width="4" stroke-linecap="round"/>
<path d="M181.743 168.687L206.165 156.908" stroke="white" stroke-opacity="0.05" stroke-width="4" stroke-linecap="round"/>
<path d="M288.659 228.034H315.732M302.278 214.472L302.278 241.764" stroke="white" stroke-opacity="0.05" stroke-width="4" stroke-linecap="round"/>
<path d="M155.018 268.023H182.091" stroke="white" stroke-opacity="0.05" stroke-width="4" stroke-linecap="round"/>
<path d="M168.635 254.461L168.635 281.753" stroke="white" stroke-opacity="0.05" stroke-width="4" stroke-linecap="round" stroke-linejoin="round" stroke-dasharray="1 127"/>
<path d="M713.923 318.641L740.263 312.334" stroke="white" stroke-opacity="0.05" stroke-width="4" stroke-linecap="round"/>
<path d="M805.97 399.437L832.431 405.208M822.127 389.085L816.402 415.759" stroke="white" stroke-opacity="0.05" stroke-width="4" stroke-linecap="round"/>
<path d="M666.961 410.037L693.421 415.808" stroke="white" stroke-opacity="0.05" stroke-width="4" stroke-linecap="round"/>
<path d="M683.118 399.681L677.391 426.365" stroke="white" stroke-opacity="0.05" stroke-width="4" stroke-linecap="round" stroke-linejoin="round" stroke-dasharray="1 127"/>
<path d="M504.919 456.507L529.341 444.728" stroke="white" stroke-opacity="0.05" stroke-width="4" stroke-linecap="round"/>
<path d="M611.84 515.854H638.913M625.459 502.292L625.459 529.584" stroke="white" stroke-opacity="0.05" stroke-width="4" stroke-linecap="round"/>
<path d="M478.194 555.843H505.267" stroke="white" stroke-opacity="0.05" stroke-width="4" stroke-linecap="round"/>
<path d="M491.812 542.281L491.812 569.573" stroke="white" stroke-opacity="0.05" stroke-width="4" stroke-linecap="round" stroke-linejoin="round" stroke-dasharray="1 127"/>
<path d="M677.656 54.9255L704.273 59.9156" stroke="white" stroke-opacity="0.05" stroke-width="4" stroke-linecap="round"/>
<path d="M729.346 166.385L751.219 182.467M748.277 163.518L732.324 185.568" stroke="white" stroke-opacity="0.05" stroke-width="4" stroke-linecap="round"/>
<path d="M597.992 119.307L619.866 135.388" stroke="white" stroke-opacity="0.05" stroke-width="4" stroke-linecap="round"/>
<path d="M616.925 116.439L600.972 138.49" stroke="white" stroke-opacity="0.05" stroke-width="4" stroke-linecap="round" stroke-linejoin="round" stroke-dasharray="1 127"/>
<path d="M378.543 12.2725L397.271 -7.4349" stroke="white" stroke-opacity="0.05" stroke-width="4" stroke-linecap="round"/>
<path d="M499.353 29.7776L524.685 20.1489M507.35 12.2437L516.902 37.7804" stroke="white" stroke-opacity="0.05" stroke-width="4" stroke-linecap="round"/>
<path d="M388.299 114.728L413.631 105.099" stroke="white" stroke-opacity="0.05" stroke-width="4" stroke-linecap="round"/>
<path d="M396.295 97.1936L405.846 122.73" stroke="white" stroke-opacity="0.05" stroke-width="4" stroke-linecap="round" stroke-linejoin="round" stroke-dasharray="1 127"/>
<path d="M487.431 214.466L514.464 215.948" stroke="white" stroke-opacity="0.05" stroke-width="4" stroke-linecap="round"/>
<path d="M552.978 318.258L576.729 331.356M571.383 312.949L558.39 336.892" stroke="white" stroke-opacity="0.05" stroke-width="4" stroke-linecap="round"/>
<path d="M416.694 288.684L440.445 301.782" stroke="white" stroke-opacity="0.05" stroke-width="4" stroke-linecap="round"/>
<path d="M435.096 283.375L422.103 307.318" stroke="white" stroke-opacity="0.05" stroke-width="4" stroke-linecap="round" stroke-linejoin="round" stroke-dasharray="1 127"/>
<path d="M278.907 372.749L305.98 372.853" stroke="white" stroke-opacity="0.05" stroke-width="4" stroke-linecap="round"/>
<path d="M349.563 473.074L373.94 484.947M367.679 466.836L355.902 491.41" stroke="white" stroke-opacity="0.05" stroke-width="4" stroke-linecap="round"/>
<path d="M211.968 450.47L236.345 462.344" stroke="white" stroke-opacity="0.05" stroke-width="4" stroke-linecap="round"/>
<path d="M230.084 444.232L218.306 468.806" stroke="white" stroke-opacity="0.05" stroke-width="4" stroke-linecap="round" stroke-linejoin="round" stroke-dasharray="1 127"/>
</svg>
