<svg width="196" height="151" viewBox="0 0 196 151" fill="none" xmlns="http://www.w3.org/2000/svg">
<path d="M112.081 125.262C111.793 126.519 110.547 127.307 109.3 127.021C108.052 126.735 107.273 125.484 107.561 124.227C107.849 122.97 109.094 122.183 110.342 122.469C111.59 122.755 112.368 124.005 112.081 125.262Z" fill="#343434"/>
<path d="M118.406 97.6476C118.119 98.9046 116.873 99.6918 115.625 99.4059C114.377 99.12 113.599 97.8693 113.887 96.6123C114.175 95.3553 115.42 94.5681 116.668 94.854C117.916 95.1399 118.694 96.3906 118.406 97.6476Z" fill="#343434"/>
<path d="M96.7375 106.417C97.0255 105.16 98.2706 104.373 99.5185 104.659L128.141 111.216C129.389 111.502 130.167 112.752 129.879 114.009C129.591 115.266 128.346 116.053 127.098 115.768L98.4758 109.211C97.2278 108.925 96.4496 107.674 96.7375 106.417Z" fill="#343434"/>
<path d="M96.7375 106.417C97.0255 105.16 98.2706 104.373 99.5185 104.659L128.141 111.216C129.389 111.502 130.167 112.752 129.879 114.009C129.591 115.266 128.346 116.053 127.098 115.768L98.4758 109.211C97.2278 108.925 96.4496 107.674 96.7375 106.417Z" fill="#343434"/>
<path d="M26.7214 55.2598C27.0245 54.0064 28.2791 53.2343 29.5235 53.5353L58.0643 60.438C59.3087 60.7389 60.0717 61.999 59.7686 63.2524C59.4655 64.5058 58.2109 65.2779 56.9665 64.9769L42.6961 61.5256L28.4257 58.0742C27.1813 57.7732 26.4183 56.5132 26.7214 55.2598Z" fill="#343434"/>
<path d="M26.7214 55.2598C27.0245 54.0064 28.2791 53.2343 29.5235 53.5353L58.0643 60.438C59.3087 60.7389 60.0717 61.999 59.7686 63.2524C59.4655 64.5058 58.2109 65.2779 56.9665 64.9769L42.6961 61.5256L28.4257 58.0742C27.1813 57.7732 26.4183 56.5132 26.7214 55.2598Z" fill="#343434"/>
<path d="M162.332 8.93414C163.429 9.61184 163.773 11.0442 163.1 12.1335L147.668 37.1152C146.995 38.2044 145.56 38.538 144.463 37.8603C143.366 37.1826 143.022 35.7502 143.695 34.661L159.127 9.6793C159.8 8.59006 161.235 8.25644 162.332 8.93414Z" fill="#343434"/>
<path d="M162.332 8.93414C163.429 9.61184 163.773 11.0442 163.1 12.1335L147.668 37.1152C146.995 38.2044 145.56 38.538 144.463 37.8603C143.366 37.1826 143.022 35.7502 143.695 34.661L159.127 9.6793C159.8 8.59006 161.235 8.25644 162.332 8.93414Z" fill="#343434"/>
<path d="M167.861 32.3313C167.183 33.4284 165.75 33.7723 164.661 33.0995L139.68 17.6678C138.59 16.9949 138.257 15.5601 138.934 14.463C139.612 13.3659 141.044 13.022 142.134 13.6948L167.115 29.1265C168.205 29.7994 168.538 31.2342 167.861 32.3313Z" fill="#343434"/>
<path d="M167.861 32.3313C167.183 33.4284 165.75 33.7723 164.661 33.0995L139.68 17.6678C138.59 16.9949 138.257 15.5601 138.934 14.463C139.612 13.3659 141.044 13.022 142.134 13.6948L167.115 29.1265C168.205 29.7994 168.538 31.2342 167.861 32.3313Z" fill="#343434"/>
</svg>
